<svg xmlns="http://www.w3.org/2000/svg" width="250" height="350" viewBox="0 0 250 350"><rect width="100%" height="100%" fill="#DDDDDD"/><path fill="#999999" d="M62.435 186.06h19.94v7.66h-29.22v-49.89h9.28zm40.88-28.29q3.93 0 7.16 1.28 3.22 1.27 5.52 3.62 2.29 2.35 3.53 5.73 1.25 3.38 1.25 7.55 0 4.21-1.25 7.59-1.24 3.38-3.53 5.76-2.3 2.38-5.52 3.66-3.23 1.28-7.16 1.28-3.97 0-7.21-1.28-3.25-1.28-5.54-3.66t-3.55-5.76-1.26-7.59q0-4.17 1.26-7.55t3.55-5.73 5.54-3.62q3.24-1.28 7.21-1.28m0 29.91q4.41 0 6.54-2.96 2.12-2.97 2.12-8.7t-2.12-8.73q-2.13-3-6.54-3-4.49 0-6.64 3.02-2.16 3.02-2.16 8.71t2.16 8.68q2.15 2.98 6.64 2.98m36.91-12.52q1.59 0 2.76-.43 1.18-.43 1.95-1.19.78-.76 1.18-1.83.39-1.07.39-2.35 0-2.62-1.57-4.15-1.57-1.54-4.71-1.54t-4.71 1.54q-1.57 1.53-1.57 4.15 0 1.24.4 2.31t1.17 1.85q.78.78 1.97 1.21t2.74.43m9.63 20.15q0-1.04-.62-1.69-.62-.66-1.69-1.02t-2.5-.54q-1.44-.17-3.04-.25-1.6-.09-3.31-.16t-3.33-.28q-1.42.8-2.3 1.87t-.88 2.48q0 .93.47 1.74t1.48 1.4q1.02.59 2.64.91 1.62.33 3.97.33 2.38 0 4.11-.36 1.72-.36 2.84-1t1.64-1.52.52-1.91m-1.69-35.78h10.18v3.17q0 1.52-1.83 1.87l-3.18.58q.73 1.83.73 4.01 0 2.62-1.05 4.74-1.06 2.12-2.92 3.61-1.86 1.48-4.4 2.29-2.53.81-5.47.81-1.03 0-2-.1-.96-.11-1.9-.28-1.65 1-1.65 2.24 0 1.07.98 1.57.99.5 2.61.71t3.69.26 4.24.22q2.18.18 4.25.61t3.69 1.36 2.6 2.54q.98 1.6.98 4.12 0 2.34-1.15 4.55-1.16 2.21-3.35 3.94-2.19 1.72-5.38 2.77t-7.26 1.05q-4 0-6.97-.77-2.97-.78-4.93-2.07-1.97-1.3-2.94-2.99-.96-1.69-.96-3.51 0-2.49 1.5-4.16 1.5-1.68 4.12-2.68-1.41-.72-2.24-1.93t-.83-3.17q0-.8.29-1.64.3-.85.87-1.67.57-.83 1.43-1.57.86-.75 2.03-1.33-2.69-1.45-4.22-3.87-1.54-2.41-1.54-5.65 0-2.63 1.05-4.75 1.06-2.12 2.94-3.62t4.45-2.29q2.57-.8 5.6-.8 2.28 0 4.28.47 2 .46 3.66 1.36m31.22-1.76q3.93 0 7.16 1.28 3.23 1.27 5.52 3.62t3.54 5.73q1.24 3.38 1.24 7.55 0 4.21-1.24 7.59-1.25 3.38-3.54 5.76t-5.52 3.66-7.16 1.28q-3.97 0-7.21-1.28t-5.54-3.66q-2.29-2.38-3.55-5.76t-1.26-7.59q0-4.17 1.26-7.55t3.55-5.73q2.3-2.35 5.54-3.62 3.24-1.28 7.21-1.28m0 29.91q4.42 0 6.54-2.96 2.12-2.97 2.12-8.7t-2.12-8.73-6.54-3q-4.48 0-6.64 3.02t-2.16 8.71 2.16 8.68q2.16 2.98 6.64 2.98"/></svg>