<svg xmlns="http://www.w3.org/2000/svg" width="350" height="250" viewBox="0 0 350 250"><rect width="100%" height="100%" fill="#DDDDDD"/><path fill="#999999" d="M87.95 140.38h27.74v10.66H75.04V81.63h12.91zm56.88-39.36q5.47 0 9.96 1.78t7.68 5.04 4.92 7.97q1.73 4.7 1.73 10.51 0 5.86-1.73 10.56t-4.92 8.02q-3.19 3.31-7.68 5.08-4.49 1.78-9.96 1.78-5.52 0-10.03-1.78-4.52-1.77-7.71-5.08-3.19-3.32-4.94-8.02t-1.75-10.56q0-5.81 1.75-10.51 1.75-4.71 4.94-7.97t7.71-5.04q4.51-1.78 10.03-1.78m0 41.62q6.14 0 9.09-4.13 2.96-4.13 2.96-12.09 0-7.97-2.96-12.15-2.95-4.17-9.09-4.17-6.24 0-9.24 4.2t-3 12.12 3 12.07 9.24 4.15m51.36-17.42q2.21 0 3.84-.6t2.71-1.66 1.63-2.54q.55-1.49.55-3.27 0-3.65-2.18-5.78-2.18-2.14-6.55-2.14t-6.55 2.14q-2.19 2.13-2.19 5.78 0 1.73.55 3.22.56 1.49 1.64 2.57t2.73 1.68q1.66.6 3.82.6m13.39 28.03q0-1.44-.86-2.35-.87-.92-2.36-1.42-1.48-.5-3.48-.74-1.99-.24-4.22-.36t-4.61-.22q-2.37-.1-4.63-.38-1.97 1.1-3.19 2.59-1.23 1.49-1.23 3.45 0 1.3.65 2.43t2.07 1.94q1.41.82 3.67 1.27 2.25.46 5.52.46 3.31 0 5.71-.5 2.4-.51 3.96-1.4 1.56-.88 2.28-2.11.72-1.22.72-2.66m-2.35-49.78h14.16v4.42q0 2.11-2.55 2.59l-4.41.82q1.01 2.54 1.01 5.56 0 3.65-1.47 6.6-1.46 2.96-4.05 5.02-2.6 2.06-6.12 3.19-3.53 1.13-7.61 1.13-1.44 0-2.79-.14-1.34-.15-2.64-.39-2.3 1.39-2.3 3.12 0 1.49 1.37 2.19 1.37.69 3.62.98 2.26.29 5.14.36t5.9.31q3.03.24 5.91.84t5.13 1.9q2.26 1.29 3.63 3.53 1.36 2.23 1.36 5.73 0 3.27-1.6 6.34-1.61 3.07-4.66 5.47t-7.49 3.86q-4.44 1.47-10.1 1.47-5.57 0-9.7-1.08t-6.86-2.88q-2.74-1.8-4.08-4.15-1.35-2.36-1.35-4.9 0-3.46 2.09-5.78 2.09-2.33 5.74-3.72-1.97-1.01-3.12-2.69t-1.15-4.42q0-1.1.4-2.28.41-1.17 1.2-2.33.8-1.15 2-2.18t2.83-1.85q-3.75-2.01-5.88-5.37-2.14-3.36-2.14-7.88 0-3.64 1.47-6.6 1.46-2.95 4.08-5.04 2.61-2.08 6.19-3.19 3.57-1.1 7.8-1.1 3.17 0 5.95.65 2.78.64 5.09 1.89m43.44-2.45q5.47 0 9.96 1.78t7.68 5.04 4.92 7.97q1.73 4.7 1.73 10.51 0 5.86-1.73 10.56t-4.92 8.02q-3.19 3.31-7.68 5.08-4.49 1.78-9.96 1.78-5.52 0-10.03-1.78-4.52-1.77-7.71-5.08-3.19-3.32-4.94-8.02t-1.75-10.56q0-5.81 1.75-10.51 1.75-4.71 4.94-7.97t7.71-5.04q4.51-1.78 10.03-1.78m0 41.62q6.14 0 9.09-4.13 2.96-4.13 2.96-12.09 0-7.97-2.96-12.15-2.95-4.17-9.09-4.17-6.24 0-9.24 4.2t-3 12.12 3 12.07 9.24 4.15"/></svg>