<svg xmlns="http://www.w3.org/2000/svg" width="256" height="256" viewBox="0 0 256 256"><rect width="100%" height="100%" fill="#DDDDDD"/><path fill="#999999" d="M64.82 149.625H88.8v9.21H53.65v-60.01h11.17zm30.67-33.37h10.29v42.58H95.49zm11.7-12.41q0 1.33-.54 2.49t-1.43 2.04q-.9.87-2.1 1.39t-2.57.52q-1.33 0-2.51-.52-1.19-.52-2.06-1.39-.87-.88-1.39-2.04t-.52-2.49q0-1.37.52-2.57t1.39-2.08q.87-.87 2.06-1.39 1.18-.51 2.51-.51 1.37 0 2.57.51 1.2.52 2.1 1.39.89.88 1.43 2.08t.54 2.57m17.93 14.28.7 3.36q1.29-1.29 2.72-2.39t3.03-1.86q1.6-.77 3.42-1.21 1.83-.43 3.99-.43 3.48 0 6.18 1.18t4.5 3.32q1.81 2.14 2.74 5.1.94 2.97.94 6.54v27.1h-10.25v-27.1q0-3.9-1.79-6.04-1.78-2.13-5.44-2.13-2.65 0-4.98 1.2-2.32 1.2-4.39 3.28v30.79h-10.25v-42.58h6.26q1.99 0 2.62 1.87m37.93-20.96h10.25v35.32h1.91q1.03 0 1.64-.27.6-.27 1.22-1.1l10.58-13.07q.67-.88 1.48-1.33.81-.46 2.09-.46h9.38l-13.24 15.81q-1.41 1.87-3.07 2.87.87.62 1.56 1.45.68.83 1.3 1.78l14.2 20.67h-9.26q-1.2 0-2.07-.39-.87-.4-1.45-1.44l-10.88-16.14q-.58-.95-1.2-1.24-.62-.3-1.87-.3h-2.32v19.51h-10.25z"/></svg>