<svg xmlns="http://www.w3.org/2000/svg" width="1366" height="768" viewBox="0 0 1366 768"><rect width="100%" height="100%" fill="#DDDDDD"/><path fill="#999999" d="M298.385 385.255h15.78q5.81 0 10.13-1.45 4.32-1.46 7.18-4.16 2.87-2.71 4.28-6.6 1.41-3.88 1.41-8.67 0-4.56-1.41-8.24-1.41-3.69-4.24-6.28-2.83-2.6-7.14-3.97-4.32-1.37-10.21-1.37h-15.78zm-21.11-57.07h36.89q11.38 0 19.71 2.67 8.32 2.67 13.73 7.46 5.42 4.78 8.05 11.46 2.63 6.67 2.63 14.6 0 8.24-2.75 15.11t-8.24 11.81q-5.5 4.95-13.78 7.7-8.28 2.74-19.35 2.74h-15.78v39.96h-21.11zm94.35-3.14h19.39v116.65h-19.39zm81.33 95.85v-13.58q-8.4.39-14.13 1.45t-9.18 2.71q-3.46 1.65-4.95 3.84-1.49 2.2-1.49 4.79 0 5.11 3.02 7.3 3.02 2.2 7.89 2.2 5.97 0 10.32-2.16 4.36-2.16 8.52-6.55m-40.98-42.31-3.45-6.21q13.89-12.71 33.44-12.71 7.07 0 12.64 2.31 5.57 2.32 9.42 6.44t5.85 9.85 2 12.56v50.87h-8.79q-2.75 0-4.24-.82-1.49-.83-2.36-3.34l-1.72-5.81q-3.07 2.75-5.97 4.83t-6.04 3.49-6.72 2.16q-3.57.75-7.89.75-5.1 0-9.42-1.38-4.31-1.37-7.45-4.12t-4.87-6.83-1.73-9.5q0-3.06 1.02-6.08t3.34-5.77 6-5.18q3.69-2.44 9.07-4.24 5.38-1.81 12.52-2.94 7.15-1.14 16.33-1.38v-4.71q0-8.08-3.45-11.97-3.46-3.88-9.97-3.88-4.71 0-7.81 1.09-3.1 1.1-5.46 2.48-2.35 1.37-4.28 2.47-1.92 1.1-4.28 1.1-2.04 0-3.45-1.06t-2.28-2.47m140.91-7.46-5.1 7.06q-.87 1.1-1.69 1.73t-2.39.63q-1.5 0-2.91-.9-1.41-.91-3.37-2.05-1.97-1.13-4.67-2.04-2.71-.9-6.72-.9-5.1 0-8.95 1.85-3.84 1.84-6.39 5.29-2.55 3.46-3.81 8.36-1.26 4.91-1.26 11.11 0 6.44 1.38 11.46 1.37 5.03 3.96 8.44 2.59 3.42 6.28 5.18 3.69 1.77 8.32 1.77t7.5-1.14q2.86-1.14 4.83-2.51 1.96-1.37 3.41-2.51t3.26-1.14q2.35 0 3.53 1.8l5.58 7.07q-3.22 3.77-6.99 6.32t-7.81 4.08-8.32 2.16-8.52.63q-7.46 0-14.05-2.79-6.6-2.79-11.54-8.12-4.95-5.34-7.81-13.07-2.87-7.74-2.87-17.63 0-8.87 2.55-16.44 2.56-7.58 7.5-13.11 4.95-5.54 12.25-8.68t16.8-3.14q9.02 0 15.81 2.91 6.79 2.9 12.21 8.32m28.18 21.04h36.58q0-3.77-1.06-7.11-1.06-3.33-3.18-5.85-2.12-2.51-5.37-3.96-3.26-1.45-7.58-1.45-8.4 0-13.23 4.79-4.82 4.78-6.16 13.58m49.46 11.69h-49.85q.47 6.2 2.2 10.72 1.72 4.51 4.55 7.46 2.83 2.94 6.71 4.39 3.89 1.45 8.6 1.45t8.12-1.1q3.42-1.09 5.97-2.43 2.55-1.33 4.47-2.43 1.93-1.1 3.73-1.1 2.44 0 3.61 1.8l5.58 7.07q-3.22 3.77-7.23 6.32-4 2.55-8.36 4.08-4.35 1.53-8.87 2.16-4.51.63-8.75.63-8.4 0-15.62-2.79t-12.56-8.24q-5.34-5.46-8.4-13.5-3.06-8.05-3.06-18.65 0-8.24 2.67-15.5t7.65-12.64q4.99-5.38 12.17-8.52t16.21-3.14q7.61 0 14.05 2.44 6.44 2.43 11.07 7.1t7.26 11.46 2.63 15.51q0 4.39-.94 5.92t-3.61 1.53m38.46-78.81v44.74q4.71-4.39 10.36-7.14 5.66-2.75 13.27-2.75 6.59 0 11.7 2.24 5.1 2.24 8.51 6.28 3.42 4.04 5.19 9.66 1.76 5.61 1.76 12.36v51.26h-19.39v-51.26q0-7.38-3.37-11.42-3.38-4.04-10.29-4.04-5.02 0-9.42 2.27-4.39 2.28-8.32 6.2v58.25h-19.39v-116.65zm104.8 34.85q8.95 0 16.29 2.91 7.34 2.9 12.56 8.24t8.04 13.03q2.83 7.69 2.83 17.19 0 9.58-2.83 17.27-2.82 7.7-8.04 13.11-5.22 5.42-12.56 8.32-7.34 2.91-16.29 2.91-9.03 0-16.41-2.91-7.38-2.9-12.6-8.32-5.22-5.41-8.08-13.11-2.87-7.69-2.87-17.27 0-9.5 2.87-17.19 2.86-7.69 8.08-13.03t12.6-8.24q7.38-2.91 16.41-2.91m0 68.06q10.05 0 14.88-6.75 4.82-6.75 4.82-19.78t-4.82-19.86q-4.83-6.83-14.88-6.83-10.21 0-15.11 6.87-4.91 6.87-4.91 19.82t4.91 19.74q4.9 6.79 15.11 6.79m54.79-102.91h19.39v116.65h-19.39zm89.34 92.79v-36.11q-3.3-4.01-7.19-5.66-3.88-1.64-8.36-1.64-4.39 0-7.93 1.64-3.53 1.65-6.04 4.99t-3.85 8.48q-1.33 5.14-1.33 12.12 0 7.07 1.14 11.98 1.14 4.9 3.25 8 2.12 3.1 5.19 4.48 3.06 1.37 6.83 1.37 6.04 0 10.28-2.51t8.01-7.14m0-92.79h19.39v116.65h-11.86q-3.84 0-4.87-3.53l-1.64-7.77q-4.87 5.57-11.19 9.02-6.32 3.46-14.72 3.46-6.59 0-12.09-2.75-5.49-2.75-9.46-7.97-3.96-5.22-6.12-12.91t-2.16-17.59q0-8.94 2.43-16.64 2.44-7.69 6.99-13.34t10.91-8.83 14.29-3.18q6.75 0 11.54 2.12t8.56 5.73zm53.85 67.12h36.58q0-3.77-1.06-7.11-1.06-3.33-3.18-5.85-2.12-2.51-5.38-3.96t-7.57-1.45q-8.4 0-13.23 4.79-4.83 4.78-6.16 13.58m49.45 11.69h-49.85q.48 6.2 2.2 10.72 1.73 4.51 4.56 7.46 2.82 2.94 6.71 4.39 3.88 1.45 8.59 1.45t8.13-1.1q3.41-1.09 5.96-2.43 2.55-1.33 4.48-2.43 1.92-1.1 3.73-1.1 2.43 0 3.61 1.8l5.57 7.07q-3.22 3.77-7.22 6.32t-8.36 4.08-8.87 2.16q-4.52.63-8.75.63-8.4 0-15.63-2.79-7.22-2.79-12.56-8.24-5.33-5.46-8.4-13.5-3.06-8.05-3.06-18.65 0-8.24 2.67-15.5t7.66-12.64q4.98-5.38 12.16-8.52 7.19-3.14 16.21-3.14 7.62 0 14.06 2.44 6.43 2.43 11.06 7.1 4.64 4.67 7.27 11.46 2.62 6.79 2.62 15.51 0 4.39-.94 5.92t-3.61 1.53m36.19-37.83 1.18 9.1q3.77-7.22 8.95-11.34t12.24-4.12q5.58 0 8.95 2.43l-1.25 14.52q-.4 1.42-1.14 2.01-.75.58-2 .58-1.18 0-3.5-.39-2.31-.39-4.51-.39-3.22 0-5.73.94t-4.52 2.71q-2 1.77-3.53 4.28t-2.86 5.73v49.61h-19.39v-80.54h11.38q2.98 0 4.16 1.06t1.57 3.81"/></svg>