<svg xmlns="http://www.w3.org/2000/svg" width="256" height="256" viewBox="0 0 256 256"><rect width="100%" height="100%" fill="#DDDDDD"/><path fill="#999999" d="M64.525 139.215h20.23v7.77h-29.64v-50.61h9.41zm41.48-28.7q3.99 0 7.26 1.29 3.27 1.3 5.6 3.68t3.59 5.81 1.26 7.66q0 4.27-1.26 7.7t-3.59 5.85q-2.33 2.41-5.6 3.71t-7.26 1.3q-4.03 0-7.32-1.3t-5.62-3.71q-2.32-2.42-3.6-5.85t-1.28-7.7q0-4.23 1.28-7.66t3.6-5.81q2.33-2.38 5.62-3.68 3.29-1.29 7.32-1.29m0 30.34q4.48 0 6.63-3.01t2.15-8.82-2.15-8.85q-2.15-3.05-6.63-3.05-4.55 0-6.74 3.07-2.19 3.06-2.19 8.83 0 5.78 2.19 8.81 2.19 3.02 6.74 3.02m37.45-12.7q1.61 0 2.8-.44t1.97-1.21q.79-.77 1.19-1.85.41-1.09.41-2.38 0-2.66-1.6-4.22-1.59-1.56-4.77-1.56-3.19 0-4.78 1.56t-1.59 4.22q0 1.26.4 2.34.4 1.09 1.19 1.88.79.78 1.99 1.22 1.21.44 2.79.44m9.76 20.44q0-1.05-.63-1.72-.63-.66-1.71-1.03-1.09-.37-2.54-.54-1.45-.18-3.08-.26-1.63-.09-3.36-.16t-3.38-.28q-1.43.8-2.33 1.89-.89 1.09-.89 2.52 0 .95.47 1.77.48.82 1.51 1.42 1.03.59 2.68.92 1.64.34 4.02.34 2.42 0 4.17-.37t2.88-1.02q1.14-.64 1.67-1.54.52-.89.52-1.94m-1.71-36.3h10.32v3.22q0 1.54-1.85 1.89l-3.22.6q.73 1.85.73 4.06 0 2.66-1.07 4.81-1.06 2.15-2.95 3.66-1.89 1.5-4.47 2.33-2.57.82-5.54.82-1.05 0-2.03-.11-.98-.1-1.93-.28-1.68 1.02-1.68 2.28 0 1.08 1 1.59t2.64.72q1.65.21 3.75.26t4.3.23q2.21.17 4.31.61t3.74 1.38q1.65.95 2.64 2.58 1 1.62 1 4.18 0 2.38-1.17 4.62t-3.4 3.99q-2.22 1.75-5.46 2.82-3.23 1.07-7.36 1.07-4.06 0-7.07-.79t-5.01-2.1q-1.99-1.31-2.97-3.03-.98-1.71-.98-3.57 0-2.52 1.52-4.22t4.18-2.71q-1.43-.74-2.27-1.96-.84-1.23-.84-3.22 0-.81.29-1.66.3-.86.88-1.7t1.45-1.59q.88-.76 2.07-1.35-2.73-1.47-4.29-3.92t-1.56-5.74q0-2.66 1.07-4.81 1.07-2.16 2.97-3.68 1.91-1.52 4.52-2.33 2.61-.8 5.69-.8 2.31 0 4.34.47t3.71 1.38m31.67-1.78q3.99 0 7.26 1.29 3.28 1.3 5.61 3.68 2.32 2.38 3.58 5.81t1.26 7.66q0 4.27-1.26 7.7t-3.58 5.85q-2.33 2.41-5.61 3.71-3.27 1.3-7.26 1.3-4.02 0-7.31-1.3t-5.62-3.71q-2.33-2.42-3.61-5.85-1.27-3.43-1.27-7.7 0-4.23 1.27-7.66 1.28-3.43 3.61-5.81t5.62-3.68q3.29-1.29 7.31-1.29m0 30.34q4.48 0 6.63-3.01 2.16-3.01 2.16-8.82t-2.16-8.85q-2.15-3.05-6.63-3.05-4.55 0-6.74 3.07-2.18 3.06-2.18 8.83 0 5.78 2.18 8.81 2.19 3.02 6.74 3.02"/></svg>